# xmcd
# 
# Track frame offsets:
#     150
#     17591
#     40069
#     56226
# 
# Disc length: 982
# 
# Revision: 0
# Processed by: cddbd v1.5.2PL0 Copyright (c) Steve Scherf et al.
# Submitted via: fre:ac v1.0.27
# 
DISCID=2b03d404
DTITLE=ポルカドットスティングレイ - 骨抜きE.P.
DYEAR=2016
DGENRE=Polka
TTITLE0=ハルシオン
TTITLE1=心ここに在らず
TTITLE2=人魚
TTITLE3=テレキャスター・ストライプ
EXTD=半泣きビビレコーズ
EXTT0=
EXTT1=
EXTT2=
EXTT3=
PLAYORDER=
